<svg width="618" height="450" viewBox="0 0 618 450" fill="none" xmlns="http://www.w3.org/2000/svg">
<g clip-path="url(#clip0_26_34)">
<path d="M359.984 79.3298C371.566 79.3298 380.956 69.9294 380.956 58.3334C380.956 46.7374 371.566 37.337 359.984 37.337C348.402 37.337 339.012 46.7374 339.012 58.3334C339.012 69.9294 348.402 79.3298 359.984 79.3298Z" fill="#29A374"/>
<path d="M522.669 390.94C553.842 367.169 568.73 327.225 559.409 289.12C559.178 288.173 558.933 287.229 558.676 286.286C552.497 263.668 537.209 242.171 514.927 234.944C496.218 228.876 475.797 233.542 456.279 231.129C417.964 226.392 388.259 195.354 367.358 162.858C346.457 130.361 330.394 93.9859 302.621 67.139C256.842 22.8863 182.164 13.3587 125.405 42.1639C68.6449 70.9691 32.4897 134.876 34.0316 198.567C35.5736 262.258 73.34 323.151 128.186 355.459C148.334 367.327 171.638 375.735 194.829 372.793C214.952 370.24 233.237 359.415 253.265 356.201C284.754 351.148 316.043 365.402 343.279 382.013C370.514 398.623 396.822 418.311 427.772 426.011C457.824 433.488 495.056 411.997 522.669 390.94Z" fill="#1FC786"/>
<path d="M477.882 43.5013C477.199 43.0453 476.508 42.6128 475.824 42.1724C456.071 29.5244 434.899 19.2493 412.746 11.5594L407.609 82.5047H375.044V1.20309C372.994 0.778452 370.929 0.37741 368.863 -4.19617e-05V82.5047H330.164C308.86 82.5047 288.429 74.0319 273.365 58.95C258.3 43.8682 249.838 23.4128 249.837 2.0839V2.08383C247.764 2.53205 245.706 3.01173 243.648 3.52287V82.5048H212.129L207.235 14.8543C184.469 23.5957 162.856 35.0911 142.876 49.0845C142.531 49.3204 142.185 49.5642 141.847 49.8001C140.111 51.0189 138.399 52.2614 136.695 53.5196V324.176H229.589L227.947 301.411L218.915 176.42H400.815L391.782 301.411L390.141 324.176H482.006V46.2379C480.639 45.31 479.265 44.3978 477.882 43.5013ZM243.648 155.778H217.422L212.576 88.7013H243.648V155.778ZM368.863 155.778H324.816V154.449C324.816 153.81 324.69 153.177 324.445 152.587C324.201 151.997 323.843 151.461 323.391 151.01C322.94 150.558 322.404 150.2 321.814 149.957C321.224 149.713 320.592 149.588 319.954 149.589H300.805C300.167 149.589 299.536 149.714 298.947 149.958C298.358 150.203 297.823 150.561 297.372 151.012C296.921 151.463 296.564 151.999 296.32 152.589C296.076 153.178 295.95 153.81 295.951 154.449V155.778H249.838V88.7013H368.863V155.778ZM375.045 155.778V88.7013H407.161L402.315 155.778H375.045Z" fill="#3F3D56"/>
<path d="M0 341.508C6.82332 349.603 14.2035 357.21 22.0866 364.274L595.913 365.06C603.797 357.996 611.177 350.389 618 342.295L0 341.508Z" fill="#3F3D56"/>
<path d="M389.131 268.613V336.007C389.131 336.866 389.472 337.69 390.079 338.297C390.686 338.904 391.508 339.246 392.366 339.247H492.12C492.978 339.246 493.801 338.904 494.407 338.297C495.014 337.69 495.355 336.866 495.356 336.007V268.613C495.354 267.755 495.012 266.933 494.406 266.327C493.799 265.72 492.977 265.379 492.12 265.378H392.366C391.509 265.379 390.687 265.72 390.081 266.327C389.474 266.933 389.133 267.755 389.131 268.613Z" fill="#3F3D56"/>
<path d="M391.471 269.452V335.176C391.471 335.635 391.654 336.075 391.978 336.399C392.302 336.724 392.741 336.906 393.2 336.907H491.29C491.748 336.906 492.188 336.724 492.512 336.399C492.836 336.075 493.018 335.635 493.019 335.176V269.452C493.019 268.992 492.837 268.552 492.513 268.227C492.189 267.901 491.749 267.718 491.29 267.717H393.2C392.741 267.718 392.301 267.901 391.977 268.227C391.653 268.552 391.471 268.992 391.471 269.452Z" fill="#29A374"/>
<path d="M387.044 349.151C387.227 349.381 387.459 349.565 387.724 349.692C387.988 349.819 388.278 349.884 388.571 349.882H495.384C495.676 349.882 495.965 349.816 496.228 349.69C496.492 349.564 496.724 349.381 496.908 349.154C497.092 348.927 497.223 348.662 497.292 348.377C497.361 348.093 497.365 347.797 497.305 347.511L495.647 339.626C495.579 339.304 495.431 339.005 495.217 338.755C495.003 338.506 494.73 338.314 494.424 338.196C494.201 338.109 493.965 338.064 493.726 338.065H390.222C389.984 338.064 389.747 338.109 389.525 338.196C389.218 338.314 388.945 338.506 388.731 338.755C388.518 339.005 388.37 339.304 388.301 339.626L386.643 347.511C386.584 347.797 386.589 348.093 386.659 348.376C386.728 348.66 386.86 348.925 387.044 349.151Z" fill="#2F2E41"/>
<path d="M490.061 341.461H492.584C492.796 341.461 492.968 341.289 492.968 341.077V339.869C492.968 339.657 492.796 339.485 492.584 339.485H490.061C489.849 339.485 489.678 339.657 489.678 339.869V341.077C489.678 341.289 489.849 341.461 490.061 341.461Z" fill="#3F3D56"/>
<path d="M483.482 341.461H486.005C486.216 341.461 486.388 341.289 486.388 341.077V339.869C486.388 339.657 486.216 339.485 486.005 339.485H483.482C483.27 339.485 483.098 339.657 483.098 339.869V341.077C483.098 341.289 483.27 341.461 483.482 341.461Z" fill="#3F3D56"/>
<path d="M476.902 341.461H479.425C479.637 341.461 479.808 341.289 479.808 341.077V339.869C479.808 339.657 479.637 339.485 479.425 339.485H476.902C476.69 339.485 476.519 339.657 476.519 339.869V341.077C476.519 341.289 476.69 341.461 476.902 341.461Z" fill="#3F3D56"/>
<path d="M470.322 341.461H472.845C473.057 341.461 473.229 341.289 473.229 341.077V339.869C473.229 339.657 473.057 339.485 472.845 339.485H470.322C470.111 339.485 469.939 339.657 469.939 339.869V341.077C469.939 341.289 470.111 341.461 470.322 341.461Z" fill="#3F3D56"/>
<path d="M463.743 341.461H466.266C466.478 341.461 466.649 341.289 466.649 341.077V339.869C466.649 339.657 466.478 339.485 466.266 339.485H463.743C463.531 339.485 463.359 339.657 463.359 339.869V341.077C463.359 341.289 463.531 341.461 463.743 341.461Z" fill="#3F3D56"/>
<path d="M457.163 341.461H459.686C459.898 341.461 460.07 341.289 460.07 341.077V339.869C460.07 339.657 459.898 339.485 459.686 339.485H457.163C456.951 339.485 456.78 339.657 456.78 339.869V341.077C456.78 341.289 456.951 341.461 457.163 341.461Z" fill="#3F3D56"/>
<path d="M450.583 341.461H453.106C453.318 341.461 453.49 341.289 453.49 341.077V339.869C453.49 339.657 453.318 339.485 453.106 339.485H450.583C450.372 339.485 450.2 339.657 450.2 339.869V341.077C450.2 341.289 450.372 341.461 450.583 341.461Z" fill="#3F3D56"/>
<path d="M444.004 341.461H446.527C446.739 341.461 446.91 341.289 446.91 341.077V339.869C446.91 339.657 446.739 339.485 446.527 339.485H444.004C443.792 339.485 443.62 339.657 443.62 339.869V341.077C443.62 341.289 443.792 341.461 444.004 341.461Z" fill="#3F3D56"/>
<path d="M437.424 341.461H439.947C440.159 341.461 440.331 341.289 440.331 341.077V339.869C440.331 339.657 440.159 339.485 439.947 339.485H437.424C437.213 339.485 437.041 339.657 437.041 339.869V341.077C437.041 341.289 437.213 341.461 437.424 341.461Z" fill="#3F3D56"/>
<path d="M430.845 341.461H433.368C433.579 341.461 433.751 341.289 433.751 341.077V339.869C433.751 339.657 433.579 339.485 433.368 339.485H430.845C430.633 339.485 430.461 339.657 430.461 339.869V341.077C430.461 341.289 430.633 341.461 430.845 341.461Z" fill="#3F3D56"/>
<path d="M424.265 341.461H426.788C427 341.461 427.171 341.289 427.171 341.077V339.869C427.171 339.657 427 339.485 426.788 339.485H424.265C424.053 339.485 423.882 339.657 423.882 339.869V341.077C423.882 341.289 424.053 341.461 424.265 341.461Z" fill="#3F3D56"/>
<path d="M417.685 341.461H420.208C420.42 341.461 420.592 341.289 420.592 341.077V339.869C420.592 339.657 420.42 339.485 420.208 339.485H417.685C417.474 339.485 417.302 339.657 417.302 339.869V341.077C417.302 341.289 417.474 341.461 417.685 341.461Z" fill="#3F3D56"/>
<path d="M411.106 341.461H413.629C413.84 341.461 414.012 341.289 414.012 341.077V339.869C414.012 339.657 413.84 339.485 413.629 339.485H411.106C410.894 339.485 410.722 339.657 410.722 339.869V341.077C410.722 341.289 410.894 341.461 411.106 341.461Z" fill="#3F3D56"/>
<path d="M404.526 341.461H407.049C407.261 341.461 407.433 341.289 407.433 341.077V339.869C407.433 339.657 407.261 339.485 407.049 339.485H404.526C404.314 339.485 404.143 339.657 404.143 339.869V341.077C404.143 341.289 404.314 341.461 404.526 341.461Z" fill="#3F3D56"/>
<path d="M397.947 341.461H400.47C400.681 341.461 400.853 341.289 400.853 341.077V339.869C400.853 339.657 400.681 339.485 400.47 339.485H397.947C397.735 339.485 397.563 339.657 397.563 339.869V341.077C397.563 341.289 397.735 341.461 397.947 341.461Z" fill="#3F3D56"/>
<path d="M391.367 341.461H393.89C394.102 341.461 394.273 341.289 394.273 341.077V339.869C394.273 339.657 394.102 339.485 393.89 339.485H391.367C391.155 339.485 390.984 339.657 390.984 339.869V341.077C390.984 341.289 391.155 341.461 391.367 341.461Z" fill="#3F3D56"/>
<path d="M490.139 344.755H492.662C492.874 344.755 493.045 344.583 493.045 344.371V343.162C493.045 342.95 492.874 342.778 492.662 342.778H490.139C489.927 342.778 489.756 342.95 489.756 343.162V344.371C489.756 344.583 489.927 344.755 490.139 344.755Z" fill="#3F3D56"/>
<path d="M483.559 344.755H486.082C486.294 344.755 486.466 344.583 486.466 344.371V343.162C486.466 342.95 486.294 342.778 486.082 342.778H483.559C483.348 342.778 483.176 342.95 483.176 343.162V344.371C483.176 344.583 483.348 344.755 483.559 344.755Z" fill="#3F3D56"/>
<path d="M476.98 344.755H479.503C479.714 344.755 479.886 344.583 479.886 344.371V343.162C479.886 342.95 479.714 342.778 479.503 342.778H476.98C476.768 342.778 476.596 342.95 476.596 343.162V344.371C476.596 344.583 476.768 344.755 476.98 344.755Z" fill="#3F3D56"/>
<path d="M470.4 344.755H472.923C473.135 344.755 473.306 344.583 473.306 344.371V343.162C473.306 342.95 473.135 342.778 472.923 342.778H470.4C470.188 342.778 470.017 342.95 470.017 343.162V344.371C470.017 344.583 470.188 344.755 470.4 344.755Z" fill="#3F3D56"/>
<path d="M463.82 344.755H466.343C466.555 344.755 466.727 344.583 466.727 344.371V343.162C466.727 342.95 466.555 342.778 466.343 342.778H463.82C463.609 342.778 463.437 342.95 463.437 343.162V344.371C463.437 344.583 463.609 344.755 463.82 344.755Z" fill="#3F3D56"/>
<path d="M457.241 344.755H459.764C459.976 344.755 460.147 344.583 460.147 344.371V343.162C460.147 342.95 459.976 342.778 459.764 342.778H457.241C457.029 342.778 456.857 342.95 456.857 343.162V344.371C456.857 344.583 457.029 344.755 457.241 344.755Z" fill="#3F3D56"/>
<path d="M450.661 344.755H453.184C453.396 344.755 453.568 344.583 453.568 344.371V343.162C453.568 342.95 453.396 342.778 453.184 342.778H450.661C450.449 342.778 450.278 342.95 450.278 343.162V344.371C450.278 344.583 450.449 344.755 450.661 344.755Z" fill="#3F3D56"/>
<path d="M444.082 344.755H446.605C446.816 344.755 446.988 344.583 446.988 344.371V343.162C446.988 342.95 446.816 342.778 446.605 342.778H444.082C443.87 342.778 443.698 342.95 443.698 343.162V344.371C443.698 344.583 443.87 344.755 444.082 344.755Z" fill="#3F3D56"/>
<path d="M437.502 344.755H440.025C440.237 344.755 440.408 344.583 440.408 344.371V343.162C440.408 342.95 440.237 342.778 440.025 342.778H437.502C437.29 342.778 437.119 342.95 437.119 343.162V344.371C437.119 344.583 437.29 344.755 437.502 344.755Z" fill="#3F3D56"/>
<path d="M430.922 344.755H433.445C433.657 344.755 433.829 344.583 433.829 344.371V343.162C433.829 342.95 433.657 342.778 433.445 342.778H430.922C430.711 342.778 430.539 342.95 430.539 343.162V344.371C430.539 344.583 430.711 344.755 430.922 344.755Z" fill="#3F3D56"/>
<path d="M424.343 344.755H426.866C427.077 344.755 427.249 344.583 427.249 344.371V343.162C427.249 342.95 427.077 342.778 426.866 342.778H424.343C424.131 342.778 423.959 342.95 423.959 343.162V344.371C423.959 344.583 424.131 344.755 424.343 344.755Z" fill="#3F3D56"/>
<path d="M417.763 344.755H420.286C420.498 344.755 420.67 344.583 420.67 344.371V343.162C420.67 342.95 420.498 342.778 420.286 342.778H417.763C417.551 342.778 417.38 342.95 417.38 343.162V344.371C417.38 344.583 417.551 344.755 417.763 344.755Z" fill="#3F3D56"/>
<path d="M411.184 344.755H413.706C413.918 344.755 414.09 344.583 414.09 344.371V343.162C414.09 342.95 413.918 342.778 413.706 342.778H411.184C410.972 342.778 410.8 342.95 410.8 343.162V344.371C410.8 344.583 410.972 344.755 411.184 344.755Z" fill="#3F3D56"/>
<path d="M404.604 344.755H407.127C407.339 344.755 407.51 344.583 407.51 344.371V343.162C407.51 342.95 407.339 342.778 407.127 342.778H404.604C404.392 342.778 404.22 342.95 404.22 343.162V344.371C404.22 344.583 404.392 344.755 404.604 344.755Z" fill="#3F3D56"/>
<path d="M398.024 344.755H400.547C400.759 344.755 400.931 344.583 400.931 344.371V343.162C400.931 342.95 400.759 342.778 400.547 342.778H398.024C397.813 342.778 397.641 342.95 397.641 343.162V344.371C397.641 344.583 397.813 344.755 398.024 344.755Z" fill="#3F3D56"/>
<path d="M391.445 344.755H393.968C394.179 344.755 394.351 344.583 394.351 344.371V343.162C394.351 342.95 394.179 342.778 393.968 342.778H391.445C391.233 342.778 391.061 342.95 391.061 343.162V344.371C391.061 344.583 391.233 344.755 391.445 344.755Z" fill="#3F3D56"/>
<path d="M435.528 348.707H461.08C461.292 348.707 461.463 348.535 461.463 348.323V347.115C461.463 346.903 461.292 346.731 461.08 346.731H435.528C435.316 346.731 435.145 346.903 435.145 347.115V348.323C435.145 348.535 435.316 348.707 435.528 348.707Z" fill="#3F3D56"/>
<path d="M408.457 282.096H406.223C405.546 282.096 404.997 282.646 404.997 283.324C404.997 284.002 405.546 284.551 406.223 284.551H408.457C409.134 284.551 409.683 284.002 409.683 283.324C409.683 282.646 409.134 282.096 408.457 282.096Z" fill="white"/>
<path d="M434.002 282.096H431.768C431.091 282.096 430.542 282.646 430.542 283.324C430.542 284.002 431.091 284.551 431.768 284.551H434.002C434.679 284.551 435.228 284.002 435.228 283.324C435.228 282.646 434.679 282.096 434.002 282.096Z" fill="white"/>
<path d="M441.24 282.096H439.006C438.329 282.096 437.78 282.646 437.78 283.324C437.78 284.002 438.329 284.551 439.006 284.551H441.24C441.917 284.551 442.466 284.002 442.466 283.324C442.466 282.646 441.917 282.096 441.24 282.096Z" fill="white"/>
<path d="M427.054 281.891H413.172C412.495 281.891 411.946 282.441 411.946 283.119C411.946 283.797 412.495 284.347 413.172 284.347H427.054C427.731 284.347 428.28 283.797 428.28 283.119C428.28 282.441 427.731 281.891 427.054 281.891Z" fill="white"/>
<path d="M461.113 281.891H447.232C446.554 281.891 446.005 282.441 446.005 283.119C446.005 283.797 446.554 284.347 447.232 284.347H461.113C461.791 284.347 462.34 283.797 462.34 283.119C462.34 282.441 461.791 281.891 461.113 281.891Z" fill="white"/>
<path d="M415.269 287.637H413.035C412.358 287.637 411.809 288.187 411.809 288.865C411.809 289.543 412.358 290.092 413.035 290.092H415.269C415.946 290.092 416.495 289.543 416.495 288.865C416.495 288.187 415.946 287.637 415.269 287.637Z" fill="white"/>
<path d="M440.814 287.637H438.58C437.903 287.637 437.354 288.187 437.354 288.865C437.354 289.543 437.903 290.092 438.58 290.092H440.814C441.491 290.092 442.04 289.543 442.04 288.865C442.04 288.187 441.491 287.637 440.814 287.637Z" fill="white"/>
<path d="M448.052 287.637H445.818C445.141 287.637 444.592 288.187 444.592 288.865C444.592 289.543 445.141 290.092 445.818 290.092H448.052C448.729 290.092 449.278 289.543 449.278 288.865C449.278 288.187 448.729 287.637 448.052 287.637Z" fill="white"/>
<path d="M433.866 287.433H419.984C419.307 287.433 418.758 287.982 418.758 288.66C418.758 289.338 419.307 289.888 419.984 289.888H433.866C434.543 289.888 435.092 289.338 435.092 288.66C435.092 287.982 434.543 287.433 433.866 287.433Z" fill="white"/>
<path d="M467.925 287.433H454.044C453.366 287.433 452.817 287.982 452.817 288.66C452.817 289.338 453.366 289.888 454.044 289.888H467.925C468.603 289.888 469.152 289.338 469.152 288.66C469.152 287.982 468.603 287.433 467.925 287.433Z" fill="white"/>
<path d="M422.081 293.178H419.847C419.17 293.178 418.621 293.728 418.621 294.406C418.621 295.084 419.17 295.634 419.847 295.634H422.081C422.758 295.634 423.307 295.084 423.307 294.406C423.307 293.728 422.758 293.178 422.081 293.178Z" fill="white"/>
<path d="M447.626 293.178H445.392C444.715 293.178 444.166 293.728 444.166 294.406C444.166 295.084 444.715 295.634 445.392 295.634H447.626C448.303 295.634 448.852 295.084 448.852 294.406C448.852 293.728 448.303 293.178 447.626 293.178Z" fill="white"/>
<path d="M454.864 293.178H452.63C451.953 293.178 451.404 293.728 451.404 294.406C451.404 295.084 451.953 295.634 452.63 295.634H454.864C455.541 295.634 456.09 295.084 456.09 294.406C456.09 293.728 455.541 293.178 454.864 293.178Z" fill="white"/>
<path d="M440.678 292.974H426.796C426.119 292.974 425.57 293.523 425.57 294.201C425.57 294.879 426.119 295.429 426.796 295.429H440.678C441.355 295.429 441.904 294.879 441.904 294.201C441.904 293.523 441.355 292.974 440.678 292.974Z" fill="white"/>
<path d="M474.737 292.974H460.856C460.178 292.974 459.629 293.523 459.629 294.201C459.629 294.879 460.178 295.429 460.856 295.429H474.737C475.415 295.429 475.964 294.879 475.964 294.201C475.964 293.523 475.415 292.974 474.737 292.974Z" fill="white"/>
<path d="M428.893 298.72H426.659C425.982 298.72 425.433 299.269 425.433 299.947C425.433 300.625 425.982 301.175 426.659 301.175H428.893C429.57 301.175 430.119 300.625 430.119 299.947C430.119 299.269 429.57 298.72 428.893 298.72Z" fill="white"/>
<path d="M454.438 298.72H452.204C451.527 298.72 450.978 299.269 450.978 299.947C450.978 300.625 451.527 301.175 452.204 301.175H454.438C455.115 301.175 455.664 300.625 455.664 299.947C455.664 299.269 455.115 298.72 454.438 298.72Z" fill="white"/>
<path d="M461.676 298.72H459.442C458.765 298.72 458.216 299.269 458.216 299.947C458.216 300.625 458.765 301.175 459.442 301.175H461.676C462.353 301.175 462.902 300.625 462.902 299.947C462.902 299.269 462.353 298.72 461.676 298.72Z" fill="white"/>
<path d="M447.489 298.515H433.608C432.93 298.515 432.381 299.065 432.381 299.743C432.381 300.421 432.93 300.97 433.608 300.97H447.489C448.167 300.97 448.716 300.421 448.716 299.743C448.716 299.065 448.167 298.515 447.489 298.515Z" fill="white"/>
<path d="M434.002 320.754H431.768C431.091 320.754 430.542 321.303 430.542 321.981C430.542 322.659 431.091 323.209 431.768 323.209H434.002C434.679 323.209 435.228 322.659 435.228 321.981C435.228 321.303 434.679 320.754 434.002 320.754Z" fill="white"/>
<path d="M441.24 320.754H439.006C438.329 320.754 437.78 321.303 437.78 321.981C437.78 322.659 438.329 323.209 439.006 323.209H441.24C441.917 323.209 442.466 322.659 442.466 321.981C442.466 321.303 441.917 320.754 441.24 320.754Z" fill="white"/>
<path d="M461.113 320.958H447.232C446.554 320.958 446.005 321.508 446.005 322.186C446.005 322.864 446.554 323.414 447.232 323.414H461.113C461.791 323.414 462.34 322.864 462.34 322.186C462.34 321.508 461.791 320.958 461.113 320.958Z" fill="white"/>
<path d="M408.457 320.754H406.223C405.546 320.754 404.997 321.303 404.997 321.981C404.997 322.659 405.546 323.209 406.223 323.209H408.457C409.134 323.209 409.683 322.659 409.683 321.981C409.683 321.303 409.134 320.754 408.457 320.754Z" fill="white"/>
<path d="M427.054 320.958H413.172C412.495 320.958 411.946 321.508 411.946 322.186C411.946 322.864 412.495 323.414 413.172 323.414H427.054C427.731 323.414 428.28 322.864 428.28 322.186C428.28 321.508 427.731 320.958 427.054 320.958Z" fill="white"/>
<path d="M415.269 315.213H413.035C412.358 315.213 411.809 315.762 411.809 316.44C411.809 317.118 412.358 317.668 413.035 317.668H415.269C415.946 317.668 416.495 317.118 416.495 316.44C416.495 315.762 415.946 315.213 415.269 315.213Z" fill="white"/>
<path d="M440.814 315.213H438.58C437.903 315.213 437.354 315.762 437.354 316.44C437.354 317.118 437.903 317.668 438.58 317.668H440.814C441.491 317.668 442.04 317.118 442.04 316.44C442.04 315.762 441.491 315.213 440.814 315.213Z" fill="white"/>
<path d="M448.052 315.213H445.818C445.141 315.213 444.592 315.762 444.592 316.44C444.592 317.118 445.141 317.668 445.818 317.668H448.052C448.729 317.668 449.278 317.118 449.278 316.44C449.278 315.762 448.729 315.213 448.052 315.213Z" fill="white"/>
<path d="M433.866 315.417H419.984C419.307 315.417 418.758 315.967 418.758 316.645C418.758 317.323 419.307 317.872 419.984 317.872H433.866C434.543 317.872 435.092 317.323 435.092 316.645C435.092 315.967 434.543 315.417 433.866 315.417Z" fill="white"/>
<path d="M422.081 309.671H419.847C419.17 309.671 418.621 310.221 418.621 310.899C418.621 311.577 419.17 312.127 419.847 312.127H422.081C422.758 312.127 423.307 311.577 423.307 310.899C423.307 310.221 422.758 309.671 422.081 309.671Z" fill="white"/>
<path d="M447.626 309.671H445.392C444.715 309.671 444.166 310.221 444.166 310.899C444.166 311.577 444.715 312.127 445.392 312.127H447.626C448.303 312.127 448.852 311.577 448.852 310.899C448.852 310.221 448.303 309.671 447.626 309.671Z" fill="white"/>
<path d="M454.864 309.671H452.63C451.953 309.671 451.404 310.221 451.404 310.899C451.404 311.577 451.953 312.127 452.63 312.127H454.864C455.541 312.127 456.09 311.577 456.09 310.899C456.09 310.221 455.541 309.671 454.864 309.671Z" fill="white"/>
<path d="M440.678 309.876H426.796C426.119 309.876 425.57 310.426 425.57 311.104C425.57 311.782 426.119 312.331 426.796 312.331H440.678C441.355 312.331 441.904 311.782 441.904 311.104C441.904 310.426 441.355 309.876 440.678 309.876Z" fill="white"/>
<path d="M428.893 304.13H426.659C425.982 304.13 425.433 304.68 425.433 305.358C425.433 306.036 425.982 306.585 426.659 306.585H428.893C429.57 306.585 430.119 306.036 430.119 305.358C430.119 304.68 429.57 304.13 428.893 304.13Z" fill="white"/>
<path d="M454.438 304.13H452.204C451.527 304.13 450.978 304.68 450.978 305.358C450.978 306.036 451.527 306.585 452.204 306.585H454.438C455.115 306.585 455.664 306.036 455.664 305.358C455.664 304.68 455.115 304.13 454.438 304.13Z" fill="white"/>
<path d="M461.676 304.13H459.442C458.765 304.13 458.216 304.68 458.216 305.358C458.216 306.036 458.765 306.585 459.442 306.585H461.676C462.353 306.585 462.902 306.036 462.902 305.358C462.902 304.68 462.353 304.13 461.676 304.13Z" fill="white"/>
<path d="M447.489 304.335H433.608C432.93 304.335 432.381 304.885 432.381 305.562C432.381 306.24 432.93 306.79 433.608 306.79H447.489C448.167 306.79 448.716 306.24 448.716 305.562C448.716 304.885 448.167 304.335 447.489 304.335Z" fill="white"/>
<path d="M396.582 385.695L386.097 369.101L419.009 342.835L432.593 327.767C434.358 325.809 436.605 324.35 439.11 323.534C441.615 322.719 444.289 322.575 446.867 323.119C449.444 323.662 451.834 324.874 453.797 326.631C455.761 328.389 457.229 330.632 458.055 333.136C459.28 336.847 459.017 340.888 457.321 344.408C455.626 347.928 452.63 350.651 448.968 352.002L427.487 359.925L396.582 385.695Z" fill="#FFB6B6"/>
<path d="M150.561 265.381V346.03H206.995V265.381C206.996 264.801 206.811 264.236 206.467 263.769C206.124 263.302 205.64 262.957 205.086 262.786C204.825 262.7 204.552 262.657 204.277 262.66H153.287C152.929 262.66 152.575 262.729 152.245 262.866C151.914 263.002 151.614 263.202 151.361 263.455C151.107 263.708 150.907 264.008 150.769 264.338C150.632 264.669 150.561 265.023 150.561 265.381ZM172.585 293.092C172.6 291.502 173.241 289.983 174.369 288.864C175.497 287.744 177.021 287.117 178.609 287.117C180.197 287.117 181.721 287.744 182.849 288.864C183.978 289.983 184.619 291.502 184.633 293.092V302.45C184.625 304.044 183.987 305.571 182.858 306.695C181.729 307.819 180.202 308.451 178.609 308.451C177.017 308.451 175.489 307.819 174.36 306.695C173.231 305.571 172.593 304.044 172.585 302.45V293.092Z" fill="#2F2E41"/>
<path d="M150.388 343.451V351.228C150.39 351.631 150.549 352.017 150.833 352.302C151.117 352.588 151.502 352.75 151.904 352.753H205.652C206.055 352.751 206.44 352.59 206.724 352.304C207.008 352.018 207.168 351.631 207.168 351.228V343.451H150.388Z" fill="#3F3D56"/>
<path d="M61.7827 143.873V291.126C61.7842 293.003 62.5294 294.802 63.8548 296.129C65.1802 297.456 66.9773 298.202 68.8517 298.204H286.811C288.686 298.202 290.483 297.456 291.808 296.129C293.134 294.802 293.879 293.003 293.88 291.126V143.873C293.876 141.998 293.129 140.201 291.804 138.876C290.479 137.551 288.684 136.806 286.811 136.804H68.8517C66.979 136.806 65.1835 137.551 63.8586 138.876C62.5336 140.201 61.7872 141.998 61.7827 143.873Z" fill="#3F3D56"/>
<path d="M66.8959 145.705V289.31C66.8977 290.313 67.2962 291.274 68.0044 291.983C68.7125 292.692 69.6725 293.091 70.6739 293.092H284.997C285.998 293.091 286.958 292.692 287.666 291.983C288.375 291.274 288.773 290.313 288.775 289.31V145.705C288.775 144.701 288.377 143.738 287.669 143.028C286.96 142.317 286 141.917 284.997 141.915H70.6739C69.6712 141.917 68.7104 142.317 68.0021 143.028C67.2939 143.738 66.896 144.701 66.8959 145.705Z" fill="#262534"/>
<path d="M106.671 352.227C106.889 352.5 107.166 352.721 107.482 352.872C107.797 353.024 108.143 353.101 108.493 353.099H236.001C236.35 353.099 236.694 353.021 237.009 352.87C237.324 352.72 237.601 352.501 237.82 352.23C238.04 351.959 238.197 351.642 238.279 351.303C238.361 350.964 238.366 350.61 238.295 350.268L236.315 340.856C236.233 340.472 236.057 340.115 235.802 339.817C235.546 339.519 235.221 339.289 234.854 339.149C234.589 339.045 234.307 338.992 234.022 338.992H110.464C110.179 338.992 109.897 339.045 109.632 339.149C109.265 339.289 108.94 339.519 108.685 339.817C108.429 340.115 108.253 340.472 108.171 340.856L106.191 350.268C106.121 350.61 106.128 350.963 106.21 351.302C106.293 351.64 106.45 351.956 106.671 352.227Z" fill="#2F2E41"/>
<path d="M278.041 161.697H77.5003C77.2918 161.692 77.0935 161.606 76.9477 161.457C76.8019 161.308 76.7203 161.107 76.7203 160.899C76.7203 160.69 76.8019 160.489 76.9477 160.34C77.0935 160.191 77.2918 160.105 77.5003 160.1H278.041C278.25 160.105 278.448 160.191 278.594 160.34C278.74 160.489 278.821 160.69 278.821 160.899C278.821 161.107 278.74 161.308 278.594 161.457C278.448 161.606 278.25 161.692 278.041 161.697Z" fill="#3F3D56"/>
<path d="M91.1514 156.024C93.7326 156.024 95.8251 153.882 95.8251 151.24C95.8251 148.598 93.7326 146.457 91.1514 146.457C88.5701 146.457 86.4777 148.598 86.4777 151.24C86.4777 153.882 88.5701 156.024 91.1514 156.024Z" fill="#3F3D56"/>
<path d="M107.297 156.024C109.878 156.024 111.971 153.882 111.971 151.24C111.971 148.598 109.878 146.457 107.297 146.457C104.716 146.457 102.623 148.598 102.623 151.24C102.623 153.882 104.716 156.024 107.297 156.024Z" fill="#3F3D56"/>
<path d="M123.442 156.024C126.024 156.024 128.116 153.882 128.116 151.24C128.116 148.598 126.024 146.457 123.442 146.457C120.861 146.457 118.769 148.598 118.769 151.24C118.769 153.882 120.861 156.024 123.442 156.024Z" fill="#3F3D56"/>
<path d="M268.319 147.64H256.852C256.625 147.645 256.409 147.739 256.251 147.901C256.093 148.063 256.004 148.281 256.004 148.508C256.004 148.736 256.093 148.954 256.251 149.116C256.409 149.278 256.625 149.372 256.852 149.377H268.319C268.547 149.374 268.765 149.281 268.925 149.119C269.085 148.956 269.175 148.737 269.175 148.508C269.175 148.28 269.085 148.061 268.925 147.898C268.765 147.736 268.547 147.643 268.319 147.64Z" fill="#3F3D56"/>
<path d="M268.319 150.903H256.852C256.625 150.908 256.409 151.002 256.25 151.164C256.092 151.327 256.003 151.545 256.003 151.772C256.003 151.999 256.092 152.217 256.25 152.38C256.409 152.542 256.625 152.636 256.852 152.641H268.319C268.548 152.638 268.766 152.545 268.926 152.383C269.087 152.22 269.177 152.001 269.177 151.772C269.177 151.543 269.087 151.324 268.926 151.161C268.766 150.998 268.548 150.906 268.319 150.903Z" fill="#3F3D56"/>
<path d="M268.319 154.166H256.852C256.625 154.172 256.409 154.265 256.251 154.428C256.093 154.59 256.004 154.808 256.004 155.035C256.004 155.262 256.093 155.48 256.251 155.643C256.409 155.805 256.625 155.899 256.852 155.904H268.319C268.547 155.901 268.765 155.808 268.925 155.645C269.085 155.483 269.175 155.264 269.175 155.035C269.175 154.807 269.085 154.588 268.925 154.425C268.765 154.262 268.547 154.17 268.319 154.166Z" fill="#3F3D56"/>
<path d="M544.778 346.864C545.124 347.873 545.78 348.746 546.653 349.358C547.525 349.969 548.569 350.289 549.634 350.27L570.442 349.734C571.515 349.713 572.552 349.345 573.399 348.685C574.246 348.024 574.856 347.108 575.14 346.071L578.084 314.549C579.129 315.022 580.266 315.256 581.413 315.233C582.409 315.208 583.391 314.987 584.301 314.582C585.212 314.177 586.034 313.597 586.721 312.874C587.408 312.151 587.946 311.3 588.304 310.369C588.662 309.438 588.833 308.445 588.808 307.448C588.783 306.45 588.562 305.468 588.158 304.556C587.754 303.644 587.174 302.821 586.452 302.133C585.73 301.446 584.88 300.907 583.95 300.549C583.02 300.19 582.028 300.018 581.032 300.044C580.574 300.042 580.117 300.09 579.668 300.186C579.181 299.658 578.588 299.238 577.929 298.953C577.27 298.668 576.558 298.525 575.84 298.532L543.833 299.359C543.567 299.369 543.303 299.402 543.043 299.457C542.342 299.588 541.676 299.868 541.091 300.279C540.506 300.689 540.016 301.22 539.653 301.835C539.291 302.451 539.064 303.138 538.989 303.848C538.913 304.559 538.991 305.278 539.216 305.956L544.778 346.864ZM578.688 312.408L580.783 304.896C581.022 304.029 581.027 303.113 580.799 302.243C580.901 302.242 580.991 302.194 581.092 302.194C582.529 302.164 583.919 302.706 584.957 303.701C585.995 304.695 586.597 306.061 586.631 307.5C586.665 308.938 586.127 310.331 585.136 311.373C584.146 312.415 582.783 313.022 581.347 313.059C580.418 313.088 579.499 312.863 578.688 312.408Z" fill="#2F2E41"/>
<path d="M543.044 299.457C543.725 303.361 551.392 306.105 560.611 305.628C569.088 305.237 576.019 302.257 577.289 298.725C576.819 298.586 576.33 298.521 575.84 298.532L543.833 299.359C543.568 299.369 543.303 299.402 543.044 299.457Z" fill="#3F3D56"/>
<path d="M562.3 329.542C562.342 329.531 562.382 329.514 562.419 329.49L566.937 326.528C566.992 326.493 567.037 326.444 567.068 326.387C567.099 326.329 567.115 326.265 567.115 326.2C567.115 326.134 567.099 326.07 567.068 326.013C567.037 325.955 566.992 325.907 566.938 325.871L562.241 322.791C562.198 322.762 562.149 322.743 562.099 322.733C562.048 322.723 561.996 322.723 561.945 322.734C561.895 322.744 561.846 322.765 561.804 322.794C561.761 322.823 561.724 322.86 561.696 322.903C561.668 322.947 561.648 322.995 561.639 323.046C561.629 323.097 561.63 323.149 561.64 323.2C561.651 323.25 561.671 323.298 561.701 323.341C561.73 323.384 561.767 323.42 561.81 323.448L566.005 326.199L561.989 328.832C561.911 328.883 561.854 328.96 561.827 329.049C561.801 329.138 561.807 329.234 561.844 329.319C561.881 329.404 561.948 329.473 562.031 329.514C562.115 329.555 562.21 329.565 562.3 329.542H562.3Z" fill="#29A374"/>
<path d="M555.163 329.871C555.239 329.852 555.307 329.811 555.359 329.752C555.411 329.694 555.445 329.621 555.456 329.544C555.466 329.466 555.454 329.387 555.419 329.317C555.385 329.246 555.33 329.188 555.262 329.149L551.097 326.758L555.123 323.765C555.164 323.734 555.199 323.695 555.225 323.651C555.252 323.607 555.269 323.557 555.277 323.506C555.284 323.455 555.282 323.403 555.269 323.353C555.257 323.303 555.234 323.256 555.204 323.215C555.173 323.173 555.134 323.138 555.09 323.112C555.046 323.085 554.997 323.068 554.946 323.06C554.895 323.053 554.843 323.056 554.793 323.068C554.743 323.081 554.696 323.103 554.655 323.134L550.147 326.486C550.095 326.525 550.053 326.576 550.025 326.635C549.998 326.694 549.985 326.759 549.989 326.824C549.993 326.89 550.013 326.953 550.047 327.008C550.082 327.064 550.129 327.11 550.186 327.142L554.871 329.831C554.96 329.882 555.064 329.896 555.163 329.871Z" fill="#29A374"/>
<path d="M561.851 332.137C561.889 332.127 561.925 332.112 561.958 332.091C562.002 332.065 562.041 332.029 562.071 331.988C562.102 331.946 562.124 331.899 562.136 331.848C562.148 331.798 562.15 331.746 562.142 331.695C562.134 331.644 562.117 331.595 562.09 331.551L555.684 321.007C555.63 320.918 555.542 320.855 555.441 320.83C555.34 320.806 555.233 320.822 555.144 320.877C555.056 320.931 554.992 321.018 554.967 321.119C554.943 321.221 554.959 321.327 555.013 321.417L561.419 331.96C561.462 332.032 561.528 332.088 561.606 332.12C561.683 332.151 561.769 332.157 561.851 332.137Z" fill="#29A374"/>
<path d="M201.732 205.104H167.023C165.607 205.104 164.459 206.253 164.459 207.671V211.066C164.459 212.483 165.607 213.632 167.023 213.632H201.732C203.148 213.632 204.296 212.483 204.296 211.066V207.671C204.296 206.253 203.148 205.104 201.732 205.104Z" fill="#29A374"/>
<path d="M221.964 222.161H146.791C145.375 222.161 144.227 223.31 144.227 224.728V228.123C144.227 229.54 145.375 230.69 146.791 230.69H221.964C223.38 230.69 224.528 229.54 224.528 228.123V224.728C224.528 223.31 223.38 222.161 221.964 222.161Z" fill="#3F3D56"/>
<path d="M221.964 239.218H146.791C145.375 239.218 144.227 240.367 144.227 241.785V245.18C144.227 246.598 145.375 247.747 146.791 247.747H221.964C223.38 247.747 224.528 246.598 224.528 245.18V241.785C224.528 240.367 223.38 239.218 221.964 239.218Z" fill="#3F3D56"/>
<path d="M228.336 296.336L228.507 296.874L228.516 296.892L233.641 312.492L239.536 330.469L250.629 364.252L250.736 369.5V369.518L251.561 411.733L249.276 417.456L251.847 426.839C251.847 426.839 250.665 412.656 244.321 420.801C240.728 425.43 236.526 430.166 233.076 434.607C238.103 436.643 243.21 438.485 248.398 440.132C249.518 440.491 250.647 440.832 251.776 441.173C252.018 441.245 252.26 441.317 252.502 441.388C269.699 446.48 287.477 449.341 305.402 449.901C306.333 449.928 307.247 449.946 308.134 449.964C308.448 449.973 308.753 449.982 309.057 449.982C310.061 449.991 311.055 450 312.059 450C314.084 450 316.1 449.97 318.107 449.91C332.962 449.491 347.731 447.491 362.163 443.945C362.065 437.98 361.796 431.009 361.411 423.564C361.232 419.913 357.209 415.957 356.967 412.135C356.796 409.265 360.407 406.565 360.219 403.649C359.001 385.699 357.477 392.59 356.348 379.879C356.232 378.632 356.124 377.439 356.026 376.299C355.3 368.136 354.798 363.032 354.798 363.032L359.619 332.613L367.19 284.854L366.608 283.894L365.954 283.571L326.019 263.782L323.85 258.22C323.219 256.618 322.122 255.242 320.703 254.268C319.283 253.295 317.605 252.768 315.885 252.757L289.578 252.65C288.213 252.644 286.866 252.963 285.649 253.583C284.432 254.202 283.38 255.103 282.58 256.211L275.457 266.087L228.336 296.336Z" fill="#3F3D56"/>
<path d="M256.695 356.735L250.736 369.5L246.669 378.219L239.671 414.9L236.167 418.622L233.166 405.443L201.75 412.427C200.719 406.695 201.474 412.621 200.838 406.333C201.017 406.153 201.205 405.974 201.393 405.794C201.895 405.328 202.316 404.888 202.307 404.467C201.949 382.776 203.024 345.862 212.002 323.499C213.408 319.847 215.262 316.385 217.521 313.192C217.701 312.95 217.871 312.707 218.041 312.465C222.181 306.661 224.797 300.947 228.507 296.883V296.874C228.53 296.856 228.551 296.835 228.569 296.812C228.583 296.805 228.595 296.796 228.605 296.785L254.087 283.257L255.181 314.008L255.96 336.111L256.695 356.735Z" fill="#3F3D56"/>
<path d="M348.579 360.36L356.022 376.304L358.62 381.856L365.616 418.533L369.108 422.247L372.116 409.071L373.53 408.781L399.024 403.495L406.455 427.122C408.13 424.328 408.789 421.041 408.323 417.816C407.856 414.592 406.291 411.627 403.893 409.424C403.386 408.965 402.963 408.517 402.975 408.094C403.398 382.582 401.839 335.998 387.763 316.824C383.293 310.74 380.61 304.679 376.708 300.445C376.695 300.433 376.695 300.421 376.683 300.421L367.186 284.853L366.607 283.897L365.954 283.571L348.579 360.36Z" fill="#3F3D56"/>
<path d="M303.491 245.154C322.82 245.154 338.489 229.467 338.489 210.116C338.489 190.764 322.82 175.077 303.491 175.077C284.163 175.077 268.493 190.764 268.493 210.116C268.493 229.467 284.163 245.154 303.491 245.154Z" fill="#FFB6B6"/>
<path d="M350.795 185.641C350.524 185.351 350.197 185.119 349.834 184.958C349.471 184.797 349.079 184.711 348.682 184.705L349.208 183.243C349.38 182.782 349.427 182.284 349.343 181.799C349.259 181.315 349.048 180.861 348.732 180.485C348.415 180.109 348.004 179.824 347.542 179.659C347.079 179.494 346.581 179.456 346.098 179.547L344.182 179.916L344.362 178.635C344.432 178.157 344.376 177.67 344.2 177.221C344.024 176.772 343.734 176.376 343.359 176.073C342.985 175.77 342.537 175.57 342.062 175.492C341.586 175.415 341.099 175.462 340.647 175.631C340.236 175.793 339.795 175.86 339.354 175.829C338.914 175.798 338.486 175.668 338.102 175.45C337.717 175.238 337.382 174.945 337.122 174.59C336.861 174.236 336.681 173.829 336.594 173.397L335.927 170.173L335.856 170C332.604 164.575 326.352 160.627 318.702 159.18C311.892 157.883 304.91 158.543 298.178 159.164C295.508 159.416 292.492 159.699 289.978 161.24C287.842 162.561 286.036 165.204 286.405 167.869C279.768 165.833 272.652 169.898 269.125 175.025C264.946 181.127 264.263 188.771 264.153 194.747C263.855 208.886 266.769 220.453 272.793 229.135C273.233 229.764 273.343 231.077 274.215 231.517L274.034 231.226C275.008 231.714 275.998 232.5 275.628 233.342C274.568 235.764 281.613 241.119 286.577 242.888C295.634 246.12 307.674 245.845 316.141 244.681L316.44 242.676C319.495 242.259 321.647 241.465 322.252 240.222C323.32 239.31 324.231 238.492 325.025 237.737L325.033 237.729C325.048 237.714 325.08 237.69 325.095 237.674C328.921 234.002 329.808 231.91 330.209 228.726C330.593 225.604 329.91 222.435 329.211 219.58C343.93 221.861 323.415 203.885 337.128 200.409C337.286 200.36 337.446 200.321 337.607 200.291C338.008 200.197 338.409 200.102 338.793 199.992C340.649 199.488 342.425 198.728 344.072 197.735C347.905 195.4 349.169 192.302 351.148 188.81C351.434 188.313 351.554 187.738 351.49 187.168C351.427 186.598 351.183 186.063 350.795 185.641Z" fill="#2F2E41"/>
<path d="M427.273 362.855C427.265 364.231 427.25 366.158 427.187 368.54C427.179 368.871 427.171 369.209 427.163 369.555C427.061 373.935 426.959 377.607 426.794 381.688C426.786 381.971 426.779 382.247 426.763 382.53C426.543 388.223 426.197 394.852 425.6 405.35C424.493 424.741 422.561 408.015 420.621 414.817C420.526 415.156 420.424 415.557 420.33 416.029C420.036 417.74 419.541 419.411 418.853 421.006C417.824 421.619 416.764 422.209 415.72 422.799C412.743 424.458 409.719 426.055 406.671 427.572C404.959 428.422 403.239 429.255 401.511 430.057C401.236 430.183 400.969 430.309 400.702 430.427C391.853 434.524 382.734 438.008 373.408 440.854C371.586 441.404 369.771 441.939 367.933 442.434C366.017 442.969 364.1 443.472 362.16 443.944C347.728 447.492 332.96 449.492 318.105 449.913C316.102 449.976 314.084 449.999 312.057 449.999C311.052 449.999 310.062 449.991 309.057 449.983C308.75 449.983 308.444 449.976 308.138 449.968C307.25 449.944 306.331 449.928 305.404 449.905C287.48 449.345 269.701 446.483 252.505 441.389L251.775 441.176C250.644 440.83 249.52 440.492 248.397 440.13C243.213 438.487 238.105 436.647 233.073 434.61C229.232 433.061 225.436 431.399 221.684 429.625C221.65 429.615 221.618 429.599 221.59 429.577C220.805 429.216 220.011 428.838 219.226 428.453C219.124 428.398 219.014 428.343 218.904 428.288C215.974 426.857 213.076 425.357 210.209 423.79C207.798 418.246 204.405 417.184 202.3 412.309C201.687 410.861 201.244 409.346 200.98 407.795C200.98 407.78 200.972 407.764 200.972 407.74C201.192 410.666 200.038 402.55 200.965 407.709C200.957 407.614 200.949 407.512 200.941 407.394C200.917 407.111 200.886 406.765 200.839 406.333C198.145 379.998 198.318 349.88 197.147 325.063C197.069 323.458 196.988 321.922 196.904 320.454C196.88 319.967 196.849 319.487 196.817 319.015C196.872 318.874 196.935 318.724 197.006 318.583C197.021 318.542 197.039 318.503 197.061 318.465C197.084 318.416 197.11 318.369 197.139 318.323C197.155 318.3 197.179 318.268 197.194 318.245C197.206 318.218 197.219 318.192 197.234 318.166C197.304 318.056 197.383 317.938 197.469 317.828C197.509 317.781 197.54 317.741 197.579 317.702C197.606 317.662 197.638 317.625 197.674 317.592C197.698 317.554 197.727 317.52 197.76 317.49C197.791 317.458 197.823 317.419 197.862 317.38C197.879 317.355 197.9 317.334 197.925 317.317C197.987 317.245 198.055 317.18 198.129 317.12C198.409 316.862 198.709 316.626 199.024 316.413C199.134 316.342 199.252 316.271 199.362 316.192C200.154 315.718 200.987 315.318 201.852 314.997C202.151 314.887 202.449 314.785 202.771 314.675C202.889 314.643 202.999 314.604 203.117 314.565C203.289 314.51 203.462 314.455 203.643 314.415C204.538 314.148 205.504 313.92 206.549 313.707C206.675 313.684 206.808 313.66 206.942 313.629C207.13 313.59 207.327 313.558 207.523 313.527C207.79 313.479 208.065 313.432 208.34 313.385C210.673 313.016 213.319 312.74 216.241 312.559C216.516 312.544 216.791 312.528 217.066 312.512C217.388 312.497 217.71 312.481 218.04 312.465C218.315 312.449 218.598 312.441 218.88 312.434C219.155 312.418 219.438 312.41 219.729 312.402C220.522 312.379 221.339 312.355 222.171 312.339C224.543 312.292 227.041 312.308 229.664 312.363C230.882 312.394 232.123 312.426 233.395 312.481C233.482 312.481 233.56 312.489 233.639 312.489C234.746 312.528 235.862 312.575 237.008 312.638C237.809 312.677 238.619 312.717 239.427 312.764C240.189 312.811 240.959 312.858 241.737 312.913C242.341 312.945 242.946 312.992 243.559 313.031C244.077 313.071 244.596 313.11 245.114 313.141L245.821 313.189C246.206 313.22 246.591 313.244 246.983 313.283C247.847 313.354 248.711 313.424 249.591 313.495C250.463 313.574 251.35 313.652 252.238 313.731C253.126 313.81 254.021 313.896 254.916 313.983C255.011 313.991 255.097 313.998 255.183 314.006C256 314.093 256.817 314.171 257.642 314.258C257.83 314.274 258.027 314.289 258.215 314.313C259.002 314.392 259.803 314.485 260.597 314.569C260.84 314.595 261.082 314.621 261.327 314.648C261.948 314.715 262.561 314.774 263.187 314.848C264.012 314.942 264.852 315.029 265.669 315.139C266.305 315.209 266.941 315.28 267.578 315.359C268.575 315.477 269.588 315.603 270.602 315.736C270.986 315.783 271.371 315.831 271.756 315.886C274.647 316.247 277.568 316.648 280.537 317.065C285.038 317.702 289.609 318.394 294.212 319.141C298.822 319.888 303.459 320.677 308.122 321.508C309.3 321.721 310.478 321.933 311.664 322.153C312.198 322.255 312.733 322.357 313.267 322.46C314.178 322.625 315.089 322.798 316 322.971C316.911 323.144 317.822 323.317 318.733 323.498C319.817 323.71 320.909 323.922 321.993 324.135C329.133 325.55 336.233 327.06 343.16 328.64C344.299 328.9 345.438 329.167 346.569 329.427C348.831 329.954 351.073 330.488 353.293 331.031C353.905 331.173 354.51 331.322 355.115 331.471C356.623 331.849 358.131 332.226 359.615 332.612L359.875 332.682C360.966 332.95 362.035 333.225 363.103 333.508C365.624 334.169 368.103 334.837 370.541 335.513C372.159 335.961 373.759 336.415 375.34 336.874C377.704 337.558 380.021 338.25 382.275 338.95C382.833 339.123 383.391 339.296 383.941 339.461C385.59 339.972 387.216 340.491 388.795 341.01C390.051 341.419 391.277 341.836 392.486 342.252C393.696 342.669 394.882 343.086 396.044 343.503C396.79 343.77 397.529 344.053 398.267 344.32C399.327 344.714 400.372 345.107 401.393 345.5C401.707 345.618 402.014 345.744 402.32 345.862C402.516 345.948 402.705 346.019 402.893 346.098C403.262 346.247 403.639 346.389 404.001 346.538C404.37 346.679 404.731 346.829 405.092 346.986C405.446 347.128 405.807 347.277 406.153 347.427C406.506 347.568 406.852 347.717 407.197 347.875C407.488 347.993 407.771 348.119 408.046 348.244C408.603 348.488 409.161 348.732 409.703 348.984C409.97 349.109 410.237 349.227 410.504 349.353L411.117 349.636C411.203 349.683 411.29 349.723 411.376 349.762C411.572 349.856 411.777 349.959 411.973 350.053C412.428 350.265 412.876 350.493 413.316 350.706C413.905 351.004 414.478 351.303 415.028 351.594C415.586 351.893 416.128 352.192 416.646 352.483C416.733 352.53 416.811 352.577 416.898 352.624C417.015 352.687 417.133 352.758 417.251 352.821C417.652 353.049 418.037 353.285 418.421 353.513C419.175 353.977 419.89 354.433 420.558 354.889C420.707 354.991 420.848 355.093 420.998 355.188C421.492 355.542 421.964 355.888 422.404 356.242C422.404 356.249 422.404 356.249 422.411 356.249C422.561 356.36 422.702 356.477 422.843 356.588C422.961 356.698 423.087 356.792 423.205 356.902C423.613 357.256 423.99 357.594 424.336 357.94C424.452 358.047 424.562 358.16 424.666 358.278C424.711 358.316 424.753 358.358 424.791 358.404C424.948 358.561 425.09 358.719 425.223 358.876C425.244 358.897 425.262 358.921 425.278 358.947C425.467 359.167 425.64 359.387 425.805 359.607C425.883 359.717 425.969 359.827 426.04 359.937C426.134 360.071 426.229 360.213 426.307 360.346C426.378 360.456 426.441 360.574 426.504 360.685C426.67 360.968 426.812 361.265 426.928 361.573C427.016 361.782 427.087 361.997 427.14 362.218C427.199 362.427 427.244 362.64 427.273 362.855Z" fill="#2F2E41"/>
<path opacity="0.2" d="M427.273 362.855C427.266 364.231 427.25 366.158 427.187 368.54C427.179 368.871 427.163 369.209 427.156 369.555C427.077 372.897 426.959 377.025 426.794 381.688C426.786 381.971 426.779 382.247 426.763 382.53C426.543 388.223 426.197 394.852 425.6 405.35C424.493 424.741 422.561 408.016 420.621 414.818C415.233 411.499 409.326 408.023 403.011 404.453C401.872 403.809 400.723 403.161 399.563 402.511C386.933 395.457 372.827 388.066 358.1 380.745C357.518 380.454 356.929 380.163 356.348 379.88C322.613 363.185 285.792 346.947 255.961 336.111C250.204 334.019 244.706 332.132 239.537 330.473C228.651 326.989 219.242 324.551 212 323.498C204.46 322.397 199.252 322.79 197.147 325.063C197.069 323.458 196.988 321.922 196.904 320.454C196.872 319.967 196.841 319.487 196.81 319.015C196.858 318.886 196.921 318.762 196.982 318.638C196.991 318.62 196.997 318.601 197.006 318.583C197.021 318.542 197.039 318.503 197.061 318.465C197.084 318.416 197.11 318.369 197.139 318.323C197.165 318.268 197.197 318.215 197.234 318.166C197.304 318.056 197.383 317.938 197.469 317.828C197.533 317.746 197.601 317.667 197.673 317.592C197.698 317.554 197.727 317.52 197.76 317.49C197.791 317.458 197.823 317.419 197.862 317.38C197.879 317.355 197.9 317.334 197.925 317.317C197.987 317.245 198.055 317.18 198.129 317.12C198.409 316.862 198.709 316.626 199.024 316.413C199.134 316.342 199.252 316.271 199.362 316.192C200.154 315.718 200.987 315.318 201.852 314.997C202.151 314.887 202.449 314.785 202.771 314.675C202.889 314.643 202.999 314.604 203.117 314.565C203.289 314.51 203.462 314.455 203.643 314.415C204.538 314.148 205.504 313.92 206.549 313.707C206.863 313.645 207.193 313.582 207.523 313.527C207.79 313.479 208.065 313.432 208.34 313.385C210.673 313.016 213.319 312.74 216.241 312.559C216.516 312.544 216.791 312.528 217.066 312.512C217.388 312.496 217.71 312.481 218.04 312.465C218.315 312.449 218.598 312.441 218.88 312.434C219.155 312.418 219.438 312.41 219.729 312.402C220.522 312.379 221.339 312.355 222.171 312.339C224.543 312.3 227.041 312.316 229.664 312.371C230.882 312.394 232.123 312.434 233.395 312.489C233.474 312.489 233.56 312.497 233.639 312.497C234.746 312.528 235.869 312.583 237.008 312.638C237.81 312.677 238.618 312.717 239.427 312.764C240.189 312.811 240.959 312.858 241.737 312.913C242.341 312.945 242.946 312.992 243.559 313.031C244.077 313.071 244.596 313.11 245.114 313.141C245.735 313.188 246.355 313.236 246.983 313.283C247.847 313.354 248.711 313.424 249.591 313.495C250.463 313.574 251.35 313.652 252.238 313.731C253.126 313.81 254.021 313.896 254.916 313.983C255.011 313.991 255.097 313.998 255.183 314.006C256 314.093 256.817 314.171 257.642 314.258C262.213 314.722 266.918 315.264 271.756 315.886C274.647 316.255 277.574 316.651 280.537 317.073C285.038 317.71 289.609 318.402 294.212 319.141C298.823 319.888 303.459 320.677 308.122 321.508C309.3 321.72 310.478 321.933 311.664 322.153C313.11 322.42 314.555 322.693 316 322.971C316.911 323.144 317.822 323.317 318.733 323.498C319.817 323.71 320.909 323.922 321.993 324.135C329.133 325.55 336.233 327.06 343.161 328.64C344.299 328.9 345.438 329.167 346.569 329.427C348.831 329.954 351.073 330.488 353.293 331.031C353.905 331.18 354.51 331.33 355.115 331.479C356.631 331.857 358.131 332.234 359.616 332.612V332.619C359.702 332.635 359.788 332.659 359.875 332.682C360.959 332.958 362.035 333.233 363.103 333.516C365.624 334.176 368.104 334.842 370.541 335.513C372.159 335.969 373.761 336.418 375.34 336.874C377.704 337.566 380.021 338.258 382.275 338.95C382.833 339.123 383.391 339.296 383.941 339.461C385.59 339.98 387.208 340.496 388.795 341.01C390.051 341.419 391.277 341.836 392.486 342.252C393.696 342.669 394.882 343.086 396.044 343.503C396.798 343.77 397.537 344.045 398.267 344.313C399.335 344.706 400.372 345.099 401.393 345.5C401.707 345.618 402.014 345.744 402.32 345.862C402.893 346.082 403.451 346.31 404.001 346.538C404.37 346.68 404.731 346.829 405.093 346.986C405.446 347.128 405.807 347.277 406.153 347.427C406.506 347.568 406.852 347.718 407.198 347.875C407.488 347.993 407.771 348.119 408.046 348.244C408.603 348.488 409.161 348.732 409.703 348.984C409.97 349.109 410.237 349.227 410.504 349.353L411.117 349.636C411.203 349.683 411.29 349.723 411.376 349.762C412.044 350.077 412.688 350.391 413.316 350.706C413.905 351.004 414.479 351.303 415.028 351.594C415.68 351.94 416.301 352.278 416.898 352.624C417.015 352.687 417.133 352.758 417.251 352.821C417.652 353.049 418.037 353.285 418.421 353.513C419.175 353.977 419.89 354.433 420.558 354.889C421.218 355.345 421.83 355.793 422.404 356.242C422.404 356.249 422.404 356.249 422.411 356.249C422.686 356.47 422.953 356.69 423.205 356.902C423.613 357.256 423.99 357.594 424.336 357.94C424.452 358.047 424.562 358.16 424.666 358.278C424.711 358.316 424.754 358.358 424.791 358.404C424.956 358.585 425.121 358.766 425.278 358.947C425.467 359.167 425.64 359.387 425.805 359.607C425.883 359.717 425.97 359.827 426.04 359.937C426.135 360.071 426.229 360.213 426.307 360.346C426.378 360.456 426.441 360.574 426.504 360.685C426.67 360.968 426.812 361.265 426.928 361.573C427.014 361.783 427.085 361.998 427.14 362.218C427.199 362.427 427.244 362.64 427.273 362.855Z" fill="black"/>
</g>
<defs>
<clipPath id="clip0_26_34">
<rect width="618" height="450" fill="white"/>
</clipPath>
</defs>
</svg>
