<svg width="936" height="128" viewBox="0 0 936 128" fill="none" xmlns="http://www.w3.org/2000/svg">
<g clip-path="url(#clip0_75_60)">
<path d="M289.099 112.924C284.018 117.104 276.394 116.559 272.038 111.47C268.409 107.107 268.227 100.204 273.308 95.115C274.58 93.661 276.212 91.844 277.483 90.39C282.927 83.667 286.014 74.3979 286.014 63.8594C286.014 37.5084 272.038 23.5172 244.813 23.5172H223.759V115.467C223.759 122.01 218.314 127.462 211.599 127.462C205.064 127.462 199.619 122.01 199.619 115.467V12.2493C199.619 5.7084 205.064 0.2568 211.599 0.2568H211.781C211.781 0.2568 211.781 0.2568 211.961 0.2568H244.813C285.106 0.2568 309.972 24.4242 309.972 63.8594C309.972 82.94 302.531 101.476 289.099 112.924Z" fill="#1FC786"/>
<path d="M247.717 127.462C241.184 127.462 235.737 122.01 235.737 115.467C235.737 108.744 241.184 103.292 247.717 103.292C254.432 103.292 259.877 108.744 259.877 115.467C259.877 122.01 254.433 127.462 247.717 127.462Z" fill="#29A374"/>
<path d="M358.187 127.462C351.654 127.462 346.209 122.011 346.209 115.467V12.2494C346.209 5.7085 351.654 0.2569 358.187 0.2569H383.235C389.768 0.2569 395.213 5.7085 395.213 12.2494C395.213 18.9727 389.768 24.4243 383.235 24.4243H370.349V52.2294H412.456C419.171 52.2294 424.434 57.1363 424.434 63.8596C424.434 70.4005 419.171 75.3074 412.456 75.3074H370.349V103.292H419.898C426.613 103.292 431.875 108.744 431.875 115.467C431.875 122.011 426.613 127.462 419.898 127.462H358.187Z" fill="#1FC786"/>
<path d="M419.354 24.4244C412.638 24.4244 407.193 18.9728 407.193 12.2495C407.193 5.7086 412.638 0.257 419.354 0.257C425.886 0.257 431.331 5.7086 431.331 12.2495C431.331 18.9728 425.886 24.4244 419.354 24.4244Z" fill="#29A374"/>
<path d="M522.679 120.375C520.865 124.737 516.508 127.643 511.609 127.643C506.891 127.643 502.534 124.737 500.719 120.375L455.705 17.1571C452.983 10.9785 455.705 3.8904 461.876 1.347C467.868 -1.3788 474.945 1.347 477.667 7.5256L511.789 86.029L531.393 40.5999C533.933 34.6012 541.012 31.8754 547.184 34.4213C553.172 37.1471 556.077 44.2327 553.355 50.4113L522.679 120.375Z" fill="#1FC786"/>
<path d="M568.781 12.2495C568.781 18.9728 563.518 24.4244 556.801 24.4244C550.268 24.4244 544.823 18.9728 544.823 12.2495C544.823 5.7086 550.268 0.257 556.801 0.257C563.518 0.257 568.781 5.7086 568.781 12.2495Z" fill="#29A374"/>
<path d="M615.211 127.462C608.678 127.462 603.233 122.011 603.233 115.467V12.2494C603.233 5.7085 608.678 0.2569 615.211 0.2569H640.26C646.793 0.2569 652.238 5.7085 652.238 12.2494C652.238 18.9727 646.793 24.4243 640.26 24.4243H627.374V52.2294H669.481C676.196 52.2294 681.459 57.1363 681.459 63.8596C681.459 70.4005 676.196 75.3074 669.481 75.3074H627.374V103.292H676.922C683.637 103.292 688.9 108.744 688.9 115.467C688.9 122.011 683.637 127.462 676.922 127.462H615.211Z" fill="#1FC786"/>
<path d="M676.378 24.4244C669.663 24.4244 664.218 18.9728 664.218 12.2495C664.218 5.7086 669.663 0.257 676.378 0.257C682.911 0.257 688.356 5.7086 688.356 12.2495C688.356 18.9728 682.911 24.4244 676.378 24.4244Z" fill="#29A374"/>
<path d="M803.298 125.643C797.671 129.096 790.23 127.462 786.599 121.828L763.913 86.211L741.043 121.828C737.594 127.462 730.153 129.096 724.526 125.643C718.899 122.011 717.267 114.56 720.716 108.926L749.575 63.8595L720.716 18.7928C717.267 13.1588 718.899 5.7085 724.526 2.2556C729.971 -1.3796 737.412 0.256899 741.043 5.8884L763.913 41.5061L767.18 36.4192C770.628 30.7853 778.07 29.1488 783.697 32.784C789.321 36.2368 790.956 43.6872 787.325 49.3211L778.07 63.8595L806.929 108.926C810.377 114.56 808.743 122.011 803.298 125.643Z" fill="#1FC786"/>
<path d="M808.743 12.2495C808.743 18.9728 803.298 24.4244 796.763 24.4244C790.048 24.4244 784.785 18.9728 784.785 12.2495C784.785 5.7086 790.048 0.257 796.763 0.257C803.298 0.257 808.743 5.7086 808.743 12.2495Z" fill="#29A374"/>
<path d="M862.311 127.462C855.778 127.462 850.333 122.011 850.333 115.467V12.2494C850.333 5.7085 855.778 0.2569 862.311 0.2569H887.36C893.893 0.2569 899.338 5.7085 899.338 12.2494C899.338 18.9727 893.893 24.4243 887.36 24.4243H874.474V52.2294H916.581C923.296 52.2294 928.559 57.1363 928.559 63.8596C928.559 70.4005 923.296 75.3074 916.581 75.3074H874.474V103.292H924.022C930.737 103.292 936 108.744 936 115.467C936 122.011 930.737 127.462 924.022 127.462H862.311Z" fill="#1FC786"/>
<path d="M923.478 24.4244C916.763 24.4244 911.318 18.9728 911.318 12.2495C911.318 5.7086 916.763 0.257 923.478 0.257C930.011 0.257 935.456 5.7086 935.456 12.2495C935.456 18.9728 930.011 24.4244 923.478 24.4244Z" fill="#29A374"/>
<path d="M6.95148 -1.63125V99.9246H156.125V-1.63125H6.95148ZM61.2182 8.78303H79.1825V16.2231H61.2182V8.78303ZM24.8088 8.78458H55.5907V16.2246H24.8088V8.78458ZM24.6687 25.6174H61.8691V33.0575H24.6687V25.6174ZM67.263 25.6174H81.9563V33.0575H67.263V25.6174ZM87.956 25.6174H138.641V33.0575H87.956V25.6174ZM50.941 42.1699H92.2335V49.61H50.941V42.1699ZM24.2499 42.1714H44.7108V49.6115H24.2499V42.1714ZM97.9996 42.1714H108.602V49.6115H97.9996V42.1714ZM116.989 50.5848L123.892 53.3571L122.776 56.1385H122.777L116.434 71.9317L110.091 87.7249L103.187 84.9511L109.53 69.1579L110.647 66.378H110.645L116.989 50.5848ZM129.921 53.9041L141.698 66.1897L141.6 66.2831L144.031 68.9062L131.545 80.4701L131.54 80.4655L128.718 83.0766L123.663 77.6194L133.561 68.4526L124.549 59.0539L129.921 53.9041ZM98.1729 54.6891L103.351 60.0303L93.6649 69.42L102.889 78.6124L97.6365 83.8828L85.5814 71.8684L85.6764 71.7735L83.1873 69.2061L95.4066 57.3604L95.4112 57.365L98.1729 54.6891ZM24.2499 58.8189H55.3119V66.259H24.2499V58.8189ZM61.2649 58.8189H78.283V66.259H61.2649V58.8189ZM24.5286 82.3475H75.122V89.7876H24.5286V82.3475Z" fill="#1FC786"/>
<path d="M1 106.096V114.582L9.1 126.732H153.55L163 114.582V106.096H1ZM64.45 112.653H72.1643V119.789H64.45V112.653ZM77.3714 112.653H85.0857V119.789H77.3714V112.653ZM91.0643 112.653H98.7786V119.789H91.0643V112.653Z" fill="#1FC786"/>
</g>
<defs>
<clipPath id="clip0_75_60">
<rect width="936" height="128" fill="white"/>
</clipPath>
</defs>
</svg>
