<svg width="936" height="158" viewBox="0 0 936 158" fill="none" xmlns="http://www.w3.org/2000/svg">
<g clip-path="url(#clip0_75_60)">
<path d="M289.099 126.924C284.018 131.104 276.394 130.559 272.038 125.47C268.409 121.107 268.227 114.204 273.308 109.115C274.58 107.661 276.212 105.844 277.483 104.39C282.927 97.667 286.014 88.3979 286.014 77.8594C286.014 51.5084 272.038 37.5172 244.813 37.5172H223.759V129.467C223.759 136.01 218.314 141.462 211.599 141.462C205.064 141.462 199.619 136.01 199.619 129.467V26.2493C199.619 19.7084 205.064 14.2568 211.599 14.2568H211.781C211.781 14.2568 211.781 14.2568 211.961 14.2568H244.813C285.106 14.2568 309.972 38.4242 309.972 77.8594C309.972 96.94 302.531 115.476 289.099 126.924Z" fill="#1FC786"/>
<path d="M247.717 141.462C241.184 141.462 235.737 136.01 235.737 129.467C235.737 122.744 241.184 117.292 247.717 117.292C254.432 117.292 259.877 122.744 259.877 129.467C259.877 136.01 254.433 141.462 247.717 141.462Z" fill="#29A374"/>
<path d="M358.187 141.462C351.654 141.462 346.209 136.011 346.209 129.467V26.2494C346.209 19.7085 351.654 14.2569 358.187 14.2569H383.235C389.768 14.2569 395.213 19.7085 395.213 26.2494C395.213 32.9727 389.768 38.4243 383.235 38.4243H370.349V66.2294H412.456C419.171 66.2294 424.434 71.1363 424.434 77.8596C424.434 84.4005 419.171 89.3074 412.456 89.3074H370.349V117.292H419.898C426.613 117.292 431.875 122.744 431.875 129.467C431.875 136.011 426.613 141.462 419.898 141.462H358.187Z" fill="#1FC786"/>
<path d="M419.354 38.4244C412.638 38.4244 407.193 32.9728 407.193 26.2495C407.193 19.7086 412.638 14.257 419.354 14.257C425.886 14.257 431.331 19.7086 431.331 26.2495C431.331 32.9728 425.886 38.4244 419.354 38.4244Z" fill="#29A374"/>
<path d="M522.679 134.375C520.865 138.737 516.508 141.643 511.609 141.643C506.891 141.643 502.534 138.737 500.719 134.375L455.705 31.1571C452.983 24.9785 455.705 17.8904 461.876 15.347C467.868 12.6212 474.945 15.347 477.667 21.5256L511.789 100.029L531.393 54.5999C533.933 48.6012 541.012 45.8754 547.184 48.4213C553.172 51.1471 556.077 58.2327 553.355 64.4113L522.679 134.375Z" fill="#1FC786"/>
<path d="M568.781 26.2495C568.781 32.9728 563.518 38.4244 556.801 38.4244C550.268 38.4244 544.823 32.9728 544.823 26.2495C544.823 19.7086 550.268 14.257 556.801 14.257C563.518 14.257 568.781 19.7086 568.781 26.2495Z" fill="#29A374"/>
<path d="M615.211 141.462C608.678 141.462 603.233 136.011 603.233 129.467V26.2494C603.233 19.7085 608.678 14.2569 615.211 14.2569H640.26C646.793 14.2569 652.238 19.7085 652.238 26.2494C652.238 32.9727 646.793 38.4243 640.26 38.4243H627.374V66.2294H669.481C676.196 66.2294 681.459 71.1363 681.459 77.8596C681.459 84.4005 676.196 89.3074 669.481 89.3074H627.374V117.292H676.922C683.637 117.292 688.9 122.744 688.9 129.467C688.9 136.011 683.637 141.462 676.922 141.462H615.211Z" fill="#1FC786"/>
<path d="M676.378 38.4244C669.663 38.4244 664.218 32.9728 664.218 26.2495C664.218 19.7086 669.663 14.257 676.378 14.257C682.911 14.257 688.356 19.7086 688.356 26.2495C688.356 32.9728 682.911 38.4244 676.378 38.4244Z" fill="#29A374"/>
<path d="M803.298 139.643C797.671 143.096 790.23 141.462 786.599 135.828L763.913 100.211L741.043 135.828C737.594 141.462 730.153 143.096 724.526 139.643C718.899 136.011 717.267 128.56 720.716 122.926L749.575 77.8595L720.716 32.7928C717.267 27.1588 718.899 19.7085 724.526 16.2556C729.971 12.6204 737.412 14.2569 741.043 19.8884L763.913 55.5061L767.18 50.4192C770.628 44.7853 778.07 43.1488 783.697 46.784C789.321 50.2368 790.956 57.6872 787.325 63.3211L778.07 77.8595L806.929 122.926C810.377 128.56 808.743 136.011 803.298 139.643Z" fill="#1FC786"/>
<path d="M808.743 26.2495C808.743 32.9728 803.298 38.4244 796.763 38.4244C790.048 38.4244 784.785 32.9728 784.785 26.2495C784.785 19.7086 790.048 14.257 796.763 14.257C803.298 14.257 808.743 19.7086 808.743 26.2495Z" fill="#29A374"/>
<path d="M862.311 141.462C855.778 141.462 850.333 136.011 850.333 129.467V26.2494C850.333 19.7085 855.778 14.2569 862.311 14.2569H887.36C893.893 14.2569 899.338 19.7085 899.338 26.2494C899.338 32.9727 893.893 38.4243 887.36 38.4243H874.474V66.2294H916.581C923.296 66.2294 928.559 71.1363 928.559 77.8596C928.559 84.4005 923.296 89.3074 916.581 89.3074H874.474V117.292H924.022C930.737 117.292 936 122.744 936 129.467C936 136.011 930.737 141.462 924.022 141.462H862.311Z" fill="#1FC786"/>
<path d="M923.478 38.4244C916.763 38.4244 911.318 32.9728 911.318 26.2495C911.318 19.7086 916.763 14.257 923.478 14.257C930.011 14.257 935.456 19.7086 935.456 26.2495C935.456 32.9728 930.011 38.4244 923.478 38.4244Z" fill="#29A374"/>
<path d="M6.95148 12.3687V113.925H156.125V12.3687H6.95148ZM61.2182 22.783H79.1825V30.2231H61.2182V22.783ZM24.8088 22.7846H55.5907V30.2246H24.8088V22.7846ZM24.6687 39.6174H61.8691V47.0575H24.6687V39.6174ZM67.263 39.6174H81.9563V47.0575H67.263V39.6174ZM87.956 39.6174H138.641V47.0575H87.956V39.6174ZM50.941 56.1699H92.2335V63.61H50.941V56.1699ZM24.2499 56.1714H44.7108V63.6115H24.2499V56.1714ZM97.9996 56.1714H108.602V63.6115H97.9996V56.1714ZM116.989 64.5848L123.892 67.3571L122.776 70.1385H122.777L116.434 85.9317L110.091 101.725L103.187 98.9511L109.53 83.1579L110.647 80.378H110.645L116.989 64.5848ZM129.921 67.9041L141.698 80.1897L141.6 80.2831L144.031 82.9062L131.545 94.4701L131.54 94.4655L128.718 97.0766L123.663 91.6194L133.561 82.4526L124.549 73.0539L129.921 67.9041ZM98.1729 68.6891L103.351 74.0303L93.6649 83.42L102.889 92.6124L97.6365 97.8828L85.5814 85.8684L85.6764 85.7735L83.1873 83.2061L95.4066 71.3604L95.4112 71.365L98.1729 68.6891ZM24.2499 72.8189H55.3119V80.259H24.2499V72.8189ZM61.2649 72.8189H78.283V80.259H61.2649V72.8189ZM24.5286 96.3475H75.122V103.788H24.5286V96.3475Z" fill="#1FC786"/>
<path d="M1 120.096V128.582L9.1 140.732H153.55L163 128.582V120.096H1ZM64.45 126.653H72.1643V133.789H64.45V126.653ZM77.3714 126.653H85.0857V133.789H77.3714V126.653ZM91.0643 126.653H98.7786V133.789H91.0643V126.653Z" fill="#1FC786"/>
</g>
<defs>
<clipPath id="clip0_75_60">
<rect width="936" height="158" fill="white"/>
</clipPath>
</defs>
</svg>
