<svg width="736" height="158" viewBox="0 0 736 158" fill="none" xmlns="http://www.w3.org/2000/svg">
<g clip-path="url(#clip0_75_40257)">
<path d="M89.099 126.924C84.018 131.104 76.394 130.559 72.038 125.47C68.409 121.107 68.227 114.204 73.308 109.115C74.58 107.661 76.212 105.844 77.483 104.39C82.927 97.667 86.014 88.3979 86.014 77.8594C86.014 51.5084 72.038 37.5172 44.813 37.5172H23.759V129.467C23.759 136.01 18.314 141.462 11.599 141.462C5.06401 141.462 -0.380981 136.01 -0.380981 129.467V26.2493C-0.380981 19.7084 5.06401 14.2568 11.599 14.2568H11.781C11.781 14.2568 11.781 14.2568 11.961 14.2568H44.813C85.106 14.2568 109.972 38.4242 109.972 77.8594C109.972 96.94 102.531 115.476 89.099 126.924Z" fill="#1FC786"/>
<path d="M47.717 141.462C41.184 141.462 35.737 136.01 35.737 129.467C35.737 122.744 41.184 117.292 47.717 117.292C54.432 117.292 59.877 122.744 59.877 129.467C59.877 136.01 54.433 141.462 47.717 141.462Z" fill="#29A374"/>
<path d="M158.187 141.462C151.654 141.462 146.209 136.011 146.209 129.467V26.2494C146.209 19.7085 151.654 14.2569 158.187 14.2569H183.235C189.768 14.2569 195.213 19.7085 195.213 26.2494C195.213 32.9727 189.768 38.4243 183.235 38.4243H170.349V66.2294H212.456C219.171 66.2294 224.434 71.1363 224.434 77.8596C224.434 84.4005 219.171 89.3074 212.456 89.3074H170.349V117.292H219.898C226.613 117.292 231.875 122.744 231.875 129.467C231.875 136.011 226.613 141.462 219.898 141.462H158.187Z" fill="#1FC786"/>
<path d="M219.354 38.4244C212.638 38.4244 207.193 32.9728 207.193 26.2495C207.193 19.7086 212.638 14.257 219.354 14.257C225.886 14.257 231.331 19.7086 231.331 26.2495C231.331 32.9728 225.886 38.4244 219.354 38.4244Z" fill="#29A374"/>
<path d="M322.679 134.375C320.865 138.737 316.508 141.643 311.609 141.643C306.891 141.643 302.534 138.737 300.719 134.375L255.705 31.1571C252.983 24.9785 255.705 17.8904 261.876 15.347C267.868 12.6212 274.945 15.347 277.667 21.5256L311.789 100.029L331.393 54.5999C333.933 48.6012 341.012 45.8754 347.184 48.4213C353.172 51.1471 356.077 58.2327 353.355 64.4113L322.679 134.375Z" fill="#1FC786"/>
<path d="M368.781 26.2495C368.781 32.9728 363.518 38.4244 356.801 38.4244C350.268 38.4244 344.823 32.9728 344.823 26.2495C344.823 19.7086 350.268 14.257 356.801 14.257C363.518 14.257 368.781 19.7086 368.781 26.2495Z" fill="#29A374"/>
<path d="M415.211 141.462C408.678 141.462 403.233 136.011 403.233 129.467V26.2494C403.233 19.7085 408.678 14.2569 415.211 14.2569H440.26C446.793 14.2569 452.238 19.7085 452.238 26.2494C452.238 32.9727 446.793 38.4243 440.26 38.4243H427.374V66.2294H469.481C476.196 66.2294 481.459 71.1363 481.459 77.8596C481.459 84.4005 476.196 89.3074 469.481 89.3074H427.374V117.292H476.922C483.637 117.292 488.9 122.744 488.9 129.467C488.9 136.011 483.637 141.462 476.922 141.462H415.211Z" fill="#1FC786"/>
<path d="M476.378 38.4244C469.663 38.4244 464.218 32.9728 464.218 26.2495C464.218 19.7086 469.663 14.257 476.378 14.257C482.911 14.257 488.356 19.7086 488.356 26.2495C488.356 32.9728 482.911 38.4244 476.378 38.4244Z" fill="#29A374"/>
<path d="M603.298 139.643C597.671 143.096 590.23 141.462 586.599 135.828L563.913 100.211L541.043 135.828C537.594 141.462 530.153 143.096 524.526 139.643C518.899 136.011 517.267 128.56 520.716 122.926L549.575 77.8595L520.716 32.7928C517.267 27.1588 518.899 19.7085 524.526 16.2556C529.971 12.6204 537.412 14.2569 541.043 19.8884L563.913 55.5061L567.18 50.4192C570.628 44.7853 578.07 43.1488 583.697 46.784C589.321 50.2368 590.956 57.6872 587.325 63.3211L578.07 77.8595L606.929 122.926C610.377 128.56 608.743 136.011 603.298 139.643Z" fill="#1FC786"/>
<path d="M608.743 26.2495C608.743 32.9728 603.298 38.4244 596.763 38.4244C590.048 38.4244 584.785 32.9728 584.785 26.2495C584.785 19.7086 590.048 14.257 596.763 14.257C603.298 14.257 608.743 19.7086 608.743 26.2495Z" fill="#29A374"/>
<path d="M662.311 141.462C655.778 141.462 650.333 136.011 650.333 129.467V26.2494C650.333 19.7085 655.778 14.2569 662.311 14.2569H687.36C693.893 14.2569 699.338 19.7085 699.338 26.2494C699.338 32.9727 693.893 38.4243 687.36 38.4243H674.474V66.2294H716.581C723.296 66.2294 728.559 71.1363 728.559 77.8596C728.559 84.4005 723.296 89.3074 716.581 89.3074H674.474V117.292H724.022C730.737 117.292 736 122.744 736 129.467C736 136.011 730.737 141.462 724.022 141.462H662.311Z" fill="#1FC786"/>
<path d="M723.478 38.4244C716.763 38.4244 711.318 32.9728 711.318 26.2495C711.318 19.7086 716.763 14.257 723.478 14.257C730.011 14.257 735.456 19.7086 735.456 26.2495C735.456 32.9728 730.011 38.4244 723.478 38.4244Z" fill="#29A374"/>
</g>
<defs>
<clipPath id="clip0_75_40257">
<rect width="736" height="158" fill="white"/>
</clipPath>
</defs>
</svg>
