<svg width="737" height="128" viewBox="0 0 737 128" fill="none" xmlns="http://www.w3.org/2000/svg">
<path d="M90.0985 112.924C85.0179 117.104 77.3945 116.559 73.0376 111.47C69.4092 107.107 69.2271 100.204 74.3077 95.1149C75.5803 93.6608 77.2123 91.8444 78.4825 90.3903C83.9275 83.667 87.0142 74.3979 87.0142 63.8594C87.0142 37.5084 73.0376 23.5172 45.8129 23.5172H24.7593V115.467C24.7593 122.01 19.3143 127.462 12.5992 127.462C6.06384 127.462 0.618896 122.01 0.618896 115.467V12.2493C0.618896 5.70835 6.06384 0.256775 12.5992 0.256775H12.7814C12.7814 0.256775 12.7814 0.256775 12.9611 0.256775H45.8129C86.1059 0.256775 110.972 24.4242 110.972 63.8594C110.972 82.94 103.531 101.476 90.0985 112.924Z" fill="#51E4AB"/>
<path d="M48.7174 127.462C42.1844 127.462 36.737 122.01 36.737 115.467C36.737 108.744 42.1844 103.292 48.7174 103.292C55.4325 103.292 60.8774 108.744 60.8774 115.467C60.8774 122.01 55.4325 127.462 48.7174 127.462Z" fill="#36C8AF"/>
<path d="M159.187 127.462C152.654 127.462 147.209 122.011 147.209 115.467V12.2494C147.209 5.70848 152.654 0.256897 159.187 0.256897H184.235C190.768 0.256897 196.213 5.7085 196.213 12.2494C196.213 18.9727 190.768 24.4243 184.235 24.4243H171.349V52.2294H213.456C220.171 52.2294 225.434 57.1363 225.434 63.8596C225.434 70.4005 220.171 75.3074 213.456 75.3074H171.349V103.292H220.898C227.613 103.292 232.875 108.744 232.875 115.467C232.875 122.011 227.613 127.462 220.898 127.462H159.187Z" fill="#51E4AB"/>
<path d="M220.354 24.4244C213.638 24.4244 208.193 18.9728 208.193 12.2495C208.193 5.7086 213.638 0.257019 220.354 0.257019C226.886 0.257019 232.331 5.70862 232.331 12.2495C232.331 18.9728 226.886 24.4244 220.354 24.4244Z" fill="#36C8AF"/>
<path d="M323.679 120.375C321.865 124.737 317.508 127.643 312.609 127.643C307.89 127.643 303.534 124.737 301.719 120.375L256.705 17.1571C253.983 10.9785 256.705 3.89041 262.876 1.347C268.868 -1.3788 275.945 1.34701 278.667 7.52563L312.789 86.029L332.393 40.5999C334.933 34.6012 342.012 31.8754 348.184 34.4213C354.172 37.1471 357.077 44.2327 354.355 50.4113L323.679 120.375Z" fill="#51E4AB"/>
<path d="M369.781 12.2495C369.781 18.9728 364.518 24.4244 357.801 24.4244C351.268 24.4244 345.823 18.9728 345.823 12.2495C345.823 5.7086 351.268 0.257019 357.801 0.257019C364.518 0.257019 369.781 5.70862 369.781 12.2495Z" fill="#36C8AF"/>
<path d="M416.211 127.462C409.678 127.462 404.233 122.011 404.233 115.467V12.2494C404.233 5.70848 409.678 0.256897 416.211 0.256897H441.26C447.793 0.256897 453.238 5.7085 453.238 12.2494C453.238 18.9727 447.793 24.4243 441.26 24.4243H428.374V52.2294H470.481C477.196 52.2294 482.459 57.1363 482.459 63.8596C482.459 70.4005 477.196 75.3074 470.481 75.3074H428.374V103.292H477.922C484.637 103.292 489.9 108.744 489.9 115.467C489.9 122.011 484.637 127.462 477.922 127.462H416.211Z" fill="#51E4AB"/>
<path d="M477.378 24.4244C470.663 24.4244 465.218 18.9728 465.218 12.2495C465.218 5.7086 470.663 0.257019 477.378 0.257019C483.911 0.257019 489.356 5.70862 489.356 12.2495C489.356 18.9728 483.911 24.4244 477.378 24.4244Z" fill="#36C8AF"/>
<path d="M604.298 125.643C598.671 129.096 591.23 127.462 587.599 121.828L564.913 86.2106L542.043 121.828C538.594 127.462 531.153 129.096 525.526 125.643C519.899 122.011 518.267 114.56 521.716 108.926L550.575 63.8595L521.716 18.7928C518.267 13.1588 519.899 5.70846 525.526 2.25564C530.971 -1.37958 538.412 0.256901 542.043 5.88839L564.913 41.5061L568.18 36.4192C571.628 30.7853 579.07 29.1488 584.697 32.784C590.321 36.2368 591.956 43.6872 588.325 49.3211L579.07 63.8595L607.929 108.926C611.377 114.56 609.743 122.011 604.298 125.643Z" fill="#51E4AB"/>
<path d="M609.743 12.2495C609.743 18.9728 604.298 24.4244 597.763 24.4244C591.048 24.4244 585.785 18.9728 585.785 12.2495C585.785 5.7086 591.048 0.257019 597.763 0.257019C604.298 0.257019 609.743 5.70862 609.743 12.2495Z" fill="#36C8AF"/>
<path d="M663.311 127.462C656.778 127.462 651.333 122.011 651.333 115.467V12.2494C651.333 5.70848 656.778 0.256897 663.311 0.256897H688.36C694.893 0.256897 700.338 5.7085 700.338 12.2494C700.338 18.9727 694.893 24.4243 688.36 24.4243H675.474V52.2294H717.581C724.296 52.2294 729.559 57.1363 729.559 63.8596C729.559 70.4005 724.296 75.3074 717.581 75.3074H675.474V103.292H725.022C731.737 103.292 737 108.744 737 115.467C737 122.011 731.737 127.462 725.022 127.462H663.311Z" fill="#51E4AB"/>
<path d="M724.478 24.4244C717.763 24.4244 712.318 18.9728 712.318 12.2495C712.318 5.7086 717.763 0.257019 724.478 0.257019C731.011 0.257019 736.456 5.70862 736.456 12.2495C736.456 18.9728 731.011 24.4244 724.478 24.4244Z" fill="#36C8AF"/>
</svg>
