<svg width="210" height="210" viewBox="0 0 210 210" fill="none" xmlns="http://www.w3.org/2000/svg">
<g clip-path="url(#clip0_75_40228)">
<path d="M7.71484 21.2188V152.865H201.088V21.2188H7.71484ZM78.0605 34.7188H101.348V44.3633H78.0605V34.7188ZM30.8633 34.7207H70.7656V44.3653H30.8633V34.7207ZM30.6816 56.5411H78.9043V66.1856H30.6816V56.5411ZM85.8965 56.5411H104.943V66.1856H85.8965V56.5411ZM112.721 56.5411H178.424V66.1856H112.721V56.5411ZM64.7383 77.998H118.266V87.6426H64.7383V77.998ZM30.1387 78H56.6621V87.6445H30.1387V78ZM125.74 78H139.484V87.6445H125.74V78ZM150.355 88.9062L159.305 92.5L157.857 96.1055H157.859L149.637 116.578L141.414 137.051L132.465 133.455L140.688 112.982L142.135 109.379H142.133L150.355 88.9062ZM167.119 93.209L182.387 109.135L182.26 109.256L185.41 112.656L169.225 127.646L169.219 127.64L165.56 131.025L159.008 123.951L171.838 112.068L160.156 99.8846L167.119 93.209ZM125.965 94.2266L132.678 101.15L120.121 113.322L132.078 125.238L125.27 132.07L109.643 116.496L109.766 116.373L106.539 113.045L122.379 97.6895L122.385 97.6954L125.965 94.2266ZM30.1387 99.5801H70.4043V109.225H30.1387V99.5801ZM78.1211 99.5801H100.182V109.225H78.1211V99.5801ZM30.5 130.08H96.084V139.725H30.5V130.08Z" fill="#1FC786"/>
<path d="M0 161V172L10.5 187.75H197.75L210 172V161H0ZM82.25 169.5H92.25V178.75H82.25V169.5ZM99 169.5H109V178.75H99V169.5ZM116.75 169.5H126.75V178.75H116.75V169.5Z" fill="#1FC786"/>
</g>
<defs>
<clipPath id="clip0_75_40228">
<rect width="210" height="210" fill="white"/>
</clipPath>
</defs>
</svg>
